<?xml version="1.0" encoding="utf-8"?>
<!-- Generator: Adobe Illustrator 22.1.0, SVG Export Plug-In . SVG Version: 6.00 Build 0)  -->
<svg version="1.1" id="Layer_1" xmlns="http://www.w3.org/2000/svg" xmlns:xlink="http://www.w3.org/1999/xlink" x="0px" y="0px"
	 viewBox="0 0 512 512" style="enable-background:new 0 0 512 512;" xml:space="preserve">
<g>
	<path fill="#fff" d="M430.8,206.3c-14.2,0-26.7,5.9-35.9,15.1c-33.9-23.4-79.5-38.5-130-40.1l26.3-118.4l83.7,18.8c0,20.5,16.7,37.2,37.2,37.2
		c20.9,0,37.7-17.2,37.7-37.7s-16.7-37.7-37.7-37.7c-14.6,0-27.2,8.8-33.5,20.9l-92.4-20.5c-4.6-1.2-9.2,2.1-10.4,6.7l-28.8,130.5
		c-50.2,2.1-95.3,17.2-129.3,40.6c-9.2-9.6-22.2-15.5-36.4-15.5c-52.7,0-70,70.8-21.7,94.9c-1.7,7.5-2.5,15.5-2.5,23.4
		c0,79.5,89.5,143.9,199.5,143.9c110.4,0,199.9-64.4,199.9-143.9c0-8-0.9-16.3-2.9-23.8C500.7,276.5,483.3,206.3,430.8,206.3
		L430.8,206.3z M135.9,306.2c0-20.9,16.7-37.7,37.7-37.7c20.5,0,37.2,16.7,37.2,37.7c0,20.5-16.7,37.2-37.2,37.2
		C152.7,343.5,135.9,326.7,135.9,306.2z M339.2,394.9c-34.5,34.5-131.9,34.5-166.5,0c-3.8-3.3-3.8-9.2,0-13c3.3-3.3,9.2-3.3,12.5,0
		c26.4,27,113.8,27.5,141.3,0c3.3-3.3,9.2-3.3,12.5,0C343,385.7,343,391.6,339.2,394.9L339.2,394.9z M338.4,343.5
		c-20.5,0-37.2-16.7-37.2-37.2c0-20.9,16.7-37.7,37.2-37.7c20.9,0,37.7,16.7,37.7,37.7C376,326.7,359.3,343.5,338.4,343.5z"/>
</g>
</svg>
